<?xml version="1.0" encoding="utf-8"?>
<!-- Generator: Adobe Illustrator 22.1.0, SVG Export Plug-In . SVG Version: 6.00 Build 0)  -->
<svg version="1.1" id="Layer_1" xmlns="http://www.w3.org/2000/svg" xmlns:xlink="http://www.w3.org/1999/xlink" x="0px" y="0px"
	 viewBox="0 0 322 144" style="enable-background:new 0 0 322 144;" xml:space="preserve">
<style type="text/css">
	.st0{fill:#FFFFFF;}
</style>
<path class="st0" d="M47.4,49.4H25.3l-3.9,9.4H8.7L30,11.4h12.8l21.3,47.3H51.3L47.4,49.4z M43.5,40l-7.1-17.1L29.2,40H43.5z"/>
<path class="st0" d="M96.7,34.5h11.8v19.2c-5.3,3.9-12.8,6-19.5,6c-15.9,0-26.9-10.4-26.9-24.5c0-14.2,11.3-24.6,26.8-24.6
	c9.2,0,16,2.8,20.7,8.5l-8.6,7.7c-3.2-3.8-7.2-5.5-11.9-5.5c-8.1,0-13.9,5.6-13.9,14c0,8.2,5.7,13.9,14.1,13.9
	c2.7,0,5.1-0.5,7.4-1.5V34.5z"/>
<path class="st0" d="M154.6,48.8v10h-38.1V11.4h37.2v10h-24.4V30h21.6v9.5h-21.6v9.3H154.6z"/>
<path class="st0" d="M207.7,11.4v47.3H197l-21.8-26.1v26.1h-12.8V11.4h10.7l21.8,26.2V11.4H207.7z"/>
<path class="st0" d="M212,35.1c0-14.2,11.3-24.6,26.4-24.6c8.9,0,15.6,2.6,20.4,8.6l-8.4,7.7c-3.2-3.9-7.1-5.7-11.5-5.7
	c-8,0-13.8,5.6-13.8,14c0,8.3,5.8,13.9,13.8,13.9c4.4,0,8.3-1.8,11.5-5.7l8.4,7.7c-4.9,6.1-11.6,8.6-20.4,8.6
	C223.2,59.7,212,49.4,212,35.1z"/>
<path class="st0" d="M292.8,43v15.7h-13V43l-19.1-31.6h13.7l12.3,20.2l12.2-20.2H312L292.8,43z"/>
<polygon class="st0" points="171.7,106.2 189.4,88.5 180.3,79.4 162.6,97.1 145.7,80.1 136.6,89.2 153.5,106.2 135.8,123.9 
	144.9,133 162.6,115.3 181,133.7 190.1,124.6 "/>
</svg>
